<!DOCTYPE svg PUBLIC "-//W3C//DTD SVG 1.1//EN" "http://www.w3.org/Graphics/SVG/1.1/DTD/svg11.dtd">
<!-- Uploaded to: SVG Repo, www.svgrepo.com, Transformed by: SVG Repo Mixer Tools -->
<svg fill="#fbbc04" height="800px" width="800px" version="1.1" id="Layer_1" xmlns="http://www.w3.org/2000/svg" xmlns:xlink="http://www.w3.org/1999/xlink" viewBox="0 0 512 512" xml:space="preserve" stroke="#fbbc04">
<g id="SVGRepo_bgCarrier" stroke-width="0"/>
<g id="SVGRepo_tracerCarrier" stroke-linecap="round" stroke-linejoin="round"/>
<g id="SVGRepo_iconCarrier"> <g> <g> <path d="M501.801,106.356H10.199C4.566,106.356,0,110.922,0,116.555v278.889c0,5.633,4.566,10.199,10.199,10.199h491.602 c5.633,0,10.199-4.566,10.199-10.2V116.555C512,110.922,507.434,106.356,501.801,106.356z M491.602,385.245H20.398V126.755 h471.203V385.245z"/> </g> </g> <g> <g> <path d="M445.028,313.4H311.004c-5.633,0-10.199,4.566-10.199,10.199s4.566,10.199,10.199,10.199h134.023 c5.633,0,10.2-4.566,10.2-10.199S450.661,313.4,445.028,313.4z"/> </g> </g> <g> <g> <path d="M445.028,247.912H311.004c-5.633,0-10.199,4.566-10.199,10.199c0,5.633,4.566,10.199,10.199,10.199h134.023 c5.633,0,10.2-4.566,10.2-10.199C455.227,252.478,450.661,247.912,445.028,247.912z"/> </g> </g> <g> <g> <path d="M445.578,182.423h-8.032c-5.633,0-10.199,4.566-10.199,10.199c0,5.633,4.566,10.199,10.199,10.199h8.032 c5.633,0,10.199-4.566,10.199-10.199C455.777,186.989,451.211,182.423,445.578,182.423z"/> </g> </g> <g> <g> <path d="M398.789,182.423h-87.785c-5.633,0-10.199,4.566-10.199,10.199c0,5.633,4.566,10.199,10.199,10.199h87.785 c5.633,0,10.199-4.566,10.199-10.199C408.988,186.989,404.422,182.423,398.789,182.423z"/> </g> </g> <g> <g> <path d="M233.926,170.726c-19.452-15.385-45.175-23.858-72.433-23.858s-52.981,8.472-72.433,23.858 c-20.154,15.94-31.253,37.351-31.253,60.285c0,19.704,8.281,38.417,23.48,53.417c-2.08,5.114-3.626,10.328-4.616,15.576 c-7.978,42.284,19.621,60.687,20.8,61.45c1.676,1.084,3.603,1.636,5.541,1.636c1.389,0,2.783-0.284,4.093-0.858 c3.138-1.374,5.376-4.233,5.958-7.609c0.045-0.264,4.613-25.418,26.476-41.358c7.193,1.253,14.558,1.888,21.954,1.888 c27.258,0,52.982-8.472,72.433-23.858c20.154-15.94,31.253-37.351,31.253-60.285S254.08,186.667,233.926,170.726z M161.492,294.757c-7.478,0-14.906-0.768-22.079-2.284c-2.609-0.552-5.333-0.058-7.585,1.375 c-17.292,11.007-27.147,26.292-32.606,38.318c-2.949-6.51-4.878-15.815-2.508-28.379c1.094-5.798,3.119-11.59,6.019-17.214 c2.191-4.249,1.137-9.449-2.534-12.508c-14.182-11.822-21.993-27.112-21.993-43.053c0-35.148,37.363-63.745,83.288-63.745 s83.288,28.597,83.288,63.745S207.418,294.757,161.492,294.757z"/> </g> </g> </g>
</svg>